<svg width="180" height="83" viewBox="0 0 180 83" fill="none" xmlns="http://www.w3.org/2000/svg">
<path d="M18.2856 70.0745C18.6726 70.0745 19.0081 70.0053 19.3349 69.9102C19.6703 69.7892 19.9542 69.6162 20.1692 69.4174C20.4272 69.2012 20.5906 68.9419 20.7454 68.6393C20.8659 68.3367 20.9347 67.9822 20.9347 67.5931C20.9347 66.7977 20.711 66.1752 20.238 65.7516C19.7993 65.3279 19.1285 65.1291 18.2684 65.1291H17.0901V70.0745H18.2856ZM20.1692 63.7457C20.7282 63.9619 21.2013 64.2385 21.5883 64.6103C21.9754 64.9734 22.2764 65.4144 22.4828 65.9245C22.6979 66.4259 22.8011 66.9879 22.8011 67.5931C22.8011 68.1983 22.6806 68.743 22.4656 69.2618C22.2592 69.7719 21.9582 70.2128 21.5539 70.5846C21.1669 70.9391 20.6938 71.2244 20.1262 71.4405C19.5843 71.648 18.9478 71.7431 18.2684 71.7431H15.2581V63.4431H18.3028C18.9909 63.4431 19.6187 63.5469 20.1692 63.7457Z" fill="#ED1D24"/>
<path d="M27.9443 67.6277C28.4002 67.6277 28.7528 67.5067 29.0108 67.2905C29.2774 67.0744 29.4151 66.7458 29.4151 66.3654C29.4151 65.9591 29.2947 65.6564 29.0452 65.4317C28.7872 65.2155 28.4518 65.1118 27.9959 65.1118H26.1983V67.6277H27.9443ZM29.3979 63.642C29.7849 63.7803 30.1203 63.9619 30.4214 64.2212C30.688 64.472 30.9116 64.7573 31.075 65.1118C31.2299 65.4489 31.3159 65.838 31.3159 66.2789C31.3159 66.8323 31.161 67.3597 30.86 67.7833C30.5762 68.2156 30.1547 68.5528 29.6129 68.7776L31.6341 71.7431H29.3807L27.8669 69.2618H26.1983V71.7431H24.3491V63.4431H28.0819C28.5722 63.4431 29.0108 63.5123 29.3979 63.642Z" fill="#ED1D24"/>
<path d="M33.0791 63.4431H34.9369V71.7431H33.0791V63.4431Z" fill="#ED1D24"/>
<path d="M40.7081 69.8756H40.8199L42.9443 63.4431H45.0773L41.8004 71.7777H39.6157L36.313 63.4431H38.4804L40.7081 69.8756Z" fill="#ED1D24"/>
<path d="M52.6376 65.1118H48.277V66.6853H52.1646V68.3021H48.277V70.0745H52.8526V71.7431H46.4622V63.4431H52.6376V65.1118Z" fill="#ED1D24"/>
<path d="M65.298 65.1291H62.4683V71.7431H60.6277V65.1291H57.8066V63.4431H65.298V65.1291Z" fill="#ED1D24"/>
<path d="M72.9873 65.1118H68.6267V66.6853H72.5143V68.3021H68.6267V70.0745H73.1852V71.7431H66.7947V63.4431H72.9873V65.1118Z" fill="#ED1D24"/>
<path d="M80.0574 65.1809C79.6876 65.0253 79.2661 64.9734 78.8103 64.9734C78.406 64.9734 78.0362 65.0253 77.718 65.1636C77.3739 65.302 77.1073 65.4662 76.8751 65.6997C76.6343 65.9591 76.4708 66.2271 76.3504 66.547C76.2128 66.8669 76.1698 67.2214 76.1698 67.5931C76.1698 67.9995 76.2128 68.354 76.3504 68.6738C76.488 68.9937 76.6515 69.2618 76.8923 69.4866C77.1245 69.72 77.3911 69.9102 77.718 70.0399C78.0362 70.1609 78.406 70.2301 78.7759 70.2301C79.2489 70.2301 79.6876 70.1436 80.1004 69.988C80.4875 69.8237 80.8659 69.5817 81.1841 69.2791L82.2421 70.5846C81.296 71.4751 80.1176 71.916 78.6727 71.916C78.0362 71.916 77.4427 71.8123 76.9267 71.6307C76.3848 71.4059 75.929 71.1206 75.5247 70.7488C75.1549 70.3771 74.8539 69.9188 74.6474 69.4001C74.4324 68.8554 74.312 68.2848 74.312 67.6277C74.312 67.0398 74.4152 66.4605 74.6474 65.9418C74.8367 65.3971 75.1549 64.9475 75.5419 64.5584C75.9462 64.1521 76.4192 63.8495 76.9697 63.6247C77.5288 63.3912 78.1652 63.2702 78.8791 63.2702C79.5156 63.2702 80.1176 63.374 80.6423 63.5728C81.1841 63.763 81.6486 64.0483 82.07 64.4201L81.0465 65.7688C80.7627 65.5008 80.4445 65.3193 80.0574 65.1809Z" fill="#ED1D24"/>
<path d="M85.6049 66.7026H89.2259V63.4431H91.0923V71.7431H89.2259V68.4231H85.6049V71.7431H83.7385V63.4431H85.6049V66.7026Z" fill="#ED1D24"/>
<path d="M100.484 71.7431H98.6353L94.8164 66.4432V71.7431H93.0103V63.4431H94.6788L98.7041 69.0456V63.4431H100.484V71.7431Z" fill="#ED1D24"/>
<path d="M105.353 65.1463C105.043 65.2847 104.759 65.4835 104.561 65.717C104.338 65.9591 104.174 66.2444 104.054 66.5643C103.934 66.8842 103.882 67.2214 103.882 67.5931C103.882 67.9649 103.934 68.3194 104.054 68.6566C104.174 68.9765 104.338 69.2618 104.561 69.5038C104.776 69.72 105.043 69.9102 105.37 70.0572C105.671 70.1955 106.024 70.256 106.428 70.256C106.832 70.256 107.185 70.1955 107.503 70.0572C107.821 69.9102 108.096 69.72 108.311 69.4693C108.526 69.2272 108.681 68.9419 108.802 68.622C108.896 68.3021 108.965 67.9649 108.965 67.5931C108.965 67.2214 108.896 66.8669 108.802 66.547C108.681 66.2098 108.509 65.9245 108.294 65.6824C108.079 65.449 107.804 65.2674 107.503 65.1291C107.185 64.9907 106.815 64.9475 106.428 64.9475C106.024 64.9475 105.671 65.008 105.353 65.1463ZM108.208 63.5901C108.75 63.8149 109.223 64.1348 109.593 64.5238C109.997 64.8956 110.281 65.3625 110.496 65.8726C110.702 66.4086 110.823 66.9879 110.823 67.5931C110.823 68.181 110.702 68.743 110.496 69.2618C110.281 69.8065 109.98 70.256 109.593 70.6451C109.223 71.0342 108.75 71.3541 108.208 71.5788C107.675 71.8123 107.081 71.916 106.428 71.916C105.783 71.916 105.181 71.8123 104.656 71.5961C104.123 71.3714 103.65 71.0687 103.28 70.6797C102.876 70.2906 102.575 69.841 102.351 69.3136C102.153 68.7776 102.033 68.1983 102.033 67.5931C102.033 67.0052 102.153 66.4432 102.351 65.9072C102.575 65.3798 102.876 64.9302 103.28 64.5411C103.65 64.1521 104.123 63.8495 104.656 63.6247C105.181 63.3912 105.783 63.2702 106.428 63.2702C107.081 63.2702 107.675 63.3912 108.208 63.5901Z" fill="#ED1D24"/>
<path d="M114.22 70.0572H118.693V71.7431H112.371V63.4431H114.22V70.0572Z" fill="#ED1D24"/>
<path d="M122.855 65.1463C122.546 65.2847 122.279 65.4835 122.064 65.717C121.841 65.9591 121.677 66.2444 121.557 66.5643C121.454 66.8842 121.385 67.2214 121.385 67.5931C121.385 67.9649 121.454 68.3194 121.557 68.6566C121.677 68.9765 121.841 69.2618 122.064 69.5038C122.279 69.72 122.563 69.9102 122.873 70.0572C123.174 70.1955 123.544 70.256 123.931 70.256C124.335 70.256 124.705 70.1955 125.006 70.0572C125.324 69.9102 125.599 69.72 125.814 69.4693C126.029 69.2272 126.184 68.9419 126.322 68.622C126.416 68.3021 126.468 67.9649 126.468 67.5931C126.468 67.2214 126.416 66.8669 126.304 66.547C126.184 66.2098 126.012 65.9245 125.797 65.6824C125.582 65.449 125.307 65.2674 125.006 65.1291C124.687 64.9907 124.335 64.9475 123.931 64.9475C123.544 64.9475 123.174 65.008 122.855 65.1463ZM125.711 63.5901C126.27 63.8149 126.743 64.1348 127.113 64.5238C127.5 64.8956 127.801 65.3625 127.999 65.8726C128.222 66.4086 128.326 66.9879 128.326 67.5931C128.326 68.181 128.222 68.743 127.999 69.2618C127.801 69.8065 127.483 70.256 127.113 70.6451C126.726 71.0342 126.253 71.3541 125.711 71.5788C125.178 71.8123 124.584 71.916 123.931 71.916C123.286 71.916 122.701 71.8123 122.159 71.5961C121.643 71.3714 121.17 71.0687 120.783 70.6797C120.378 70.2906 120.077 69.841 119.871 69.3136C119.656 68.7776 119.553 68.1983 119.553 67.5931C119.553 67.0052 119.656 66.4432 119.871 65.9072C120.077 65.3798 120.378 64.9302 120.783 64.5411C121.17 64.1521 121.643 63.8495 122.159 63.6247C122.701 63.3912 123.286 63.2702 123.931 63.2702C124.584 63.2702 125.178 63.3912 125.711 63.5901Z" fill="#ED1D24"/>
<path d="M137.391 70.8353C136.935 71.2071 136.419 71.4924 135.86 71.6653C135.31 71.8296 134.699 71.916 134.063 71.916C133.4 71.916 132.798 71.8123 132.239 71.6307C131.706 71.4232 131.233 71.1379 130.863 70.7661C130.476 70.3944 130.158 69.9534 129.951 69.4174C129.753 68.89 129.633 68.2848 129.633 67.6277C129.633 67.0398 129.736 66.4605 129.951 65.9591C130.158 65.4144 130.459 64.9648 130.846 64.5584C131.233 64.1694 131.723 63.8668 132.274 63.6247C132.833 63.3912 133.469 63.2702 134.183 63.2702C134.802 63.2702 135.353 63.374 135.912 63.5555C136.419 63.7457 136.901 64.031 137.322 64.4201L136.282 65.7516C136.015 65.5008 135.68 65.302 135.31 65.1636C134.957 65.0253 134.553 64.9734 134.114 64.9734C133.727 64.9734 133.374 65.0253 133.03 65.1636C132.712 65.2847 132.446 65.449 132.213 65.6824C131.973 65.9245 131.792 66.1925 131.654 66.5124C131.534 66.8496 131.465 67.2041 131.465 67.5931C131.465 67.9995 131.534 68.3712 131.671 68.7084C131.809 69.0283 131.973 69.2964 132.231 69.5211C132.446 69.7546 132.729 69.9189 133.048 70.0399C133.374 70.1609 133.727 70.2301 134.114 70.2301C134.699 70.2301 135.206 70.1091 135.645 69.9102V68.6393L134.183 68.5528V67.0052H137.391V70.8353Z" fill="#ED1D24"/>
<path d="M139.111 63.4431H140.978V71.7431H139.111V63.4431Z" fill="#ED1D24"/>
<path d="M149.106 65.1118H144.745V66.6853H148.632V68.3021H144.745V70.0745H149.312V71.7431H142.913V63.4431H149.106V65.1118Z" fill="#ED1D24"/>
<path d="M155.281 65.1118C154.859 64.9734 154.438 64.9302 154.025 64.9302C153.483 64.9302 153.096 64.9907 152.864 65.1291C152.623 65.2847 152.503 65.4835 152.503 65.7343C152.503 65.9763 152.589 66.1579 152.778 66.279C152.941 66.3914 153.217 66.4778 153.604 66.5297L154.808 66.7026C155.702 66.815 156.39 67.083 156.846 67.5412C157.285 67.9649 157.509 68.5182 157.509 69.2272C157.509 69.6335 157.44 70.0053 157.268 70.3252C157.122 70.6624 156.898 70.9563 156.597 71.1725C156.296 71.4232 155.926 71.5961 155.47 71.7258C155.014 71.8642 154.507 71.916 153.939 71.916C153.251 71.916 152.623 71.8469 152.073 71.7085C151.514 71.5788 150.955 71.3195 150.421 70.965L151.213 69.452C151.669 69.72 152.133 69.9361 152.589 70.0572C153.045 70.1955 153.535 70.2474 154.034 70.2474C154.593 70.2474 154.997 70.1609 155.264 70.0053C155.522 69.841 155.651 69.6162 155.651 69.3309C155.651 69.0975 155.573 68.89 155.384 68.7603C155.195 68.622 154.911 68.5182 154.49 68.475L153.217 68.3021C152.408 68.181 151.78 67.9476 151.342 67.5412C150.894 67.1522 150.671 66.5816 150.671 65.8207C150.671 65.4144 150.74 65.0426 150.92 64.74C151.058 64.4201 151.299 64.1521 151.583 63.9273C151.866 63.7284 152.219 63.5469 152.623 63.4431C153.045 63.3221 153.483 63.2702 153.991 63.2702C154.644 63.2702 155.264 63.3567 155.823 63.5469C156.373 63.7111 156.863 63.9619 157.285 64.3336L156.373 65.6565C156.038 65.4144 155.685 65.2328 155.281 65.1118Z" fill="#ED1D24"/>
<path d="M160.94 14.6288C161.714 14.6288 162.385 14.5423 162.385 13.6518C162.385 12.8736 161.628 12.7872 161.026 12.7872H159.796V14.6288H160.94ZM159.796 18.1735H158.764V11.9313H161.138C162.635 11.9313 163.409 12.45 163.409 13.7209C163.409 14.8535 162.704 15.3204 161.783 15.4242L163.529 18.1735H162.368L160.751 15.5106H159.796V18.1735ZM160.906 10.2799C158.446 10.2799 156.562 12.1993 156.562 14.9486C156.562 17.5165 158.231 19.6088 160.906 19.6088C163.331 19.6088 165.215 17.698 165.215 14.9486C165.215 12.1993 163.331 10.2799 160.906 10.2799ZM160.906 20.5857C157.672 20.5857 155.367 18.1563 155.367 14.9486C155.367 11.5595 157.921 9.29427 160.906 9.29427C163.865 9.29427 166.428 11.5595 166.428 14.9486C166.428 18.3292 163.865 20.5857 160.906 20.5857Z" fill="#ED1D24"/>
<path d="M26.4994 57.5985H15.2236V9.29427H43.4002C51.2615 9.29427 57.652 15.7095 57.652 23.5945V28.0125C57.652 35.9148 51.2615 42.33 43.4002 42.33H37.2076L27.867 31.0212H43.4002C45.0516 31.0212 46.3934 29.6898 46.3934 28.0125V23.5945C46.3934 21.9345 45.0516 20.5857 43.4002 20.5857H26.4994V57.5985Z" fill="#ED1D24"/>
<path d="M92.9587 57.6158H75.3268C67.4656 57.6158 61.0493 51.2093 61.0493 43.307V23.5945C61.0493 15.7095 67.4656 9.29427 75.3268 9.29427H107.236V20.5857H75.3268C73.6755 20.5857 72.3251 21.9345 72.3251 23.5945V43.307C72.3251 44.9583 73.6755 46.3071 75.3268 46.3071H92.9587C94.6101 46.3071 95.9604 44.9583 95.9604 43.307V39.1743L82.1732 31.1164H107.219V43.307C107.219 51.2093 100.82 57.6158 92.9587 57.6158Z" fill="#ED1D24"/>
<path d="M138.905 31.0212H122.898L144.495 57.5812H157.861L144.177 40.791C150.387 39.4769 153.182 34.3758 153.182 28.8079V23.5945C153.182 15.7095 146.783 9.29427 138.905 9.29427H110.754V57.5985H122.013V20.5857H138.905C140.556 20.5857 141.906 21.9345 141.906 23.5945V28.0125C141.906 29.6898 140.556 31.0212 138.905 31.0212Z" fill="#ED1D24"/>
</svg>
